<svg width="1199" height="359" viewBox="0 0 1199 359" fill="none" xmlns="http://www.w3.org/2000/svg">
<g clip-path="url(#clip0_96_768)">
<rect width="1199" height="359" rx="50" fill="#FFEFD4"/>
<circle cx="433.5" cy="428.5" r="314.5" stroke="#FAA61A" stroke-opacity="0.2" stroke-width="200"/>
<circle cx="1230.5" cy="-216.5" r="364.5" stroke="#FAA61A" stroke-opacity="0.2" stroke-width="100"/>
<g filter="url(#filter0_d_96_768)">
<rect x="482" y="228" width="271" height="59" rx="29.5" fill="url(#paint0_linear_96_768)"/>
<path d="M514.712 251.49V253.164H509.402V256.854H513.542V258.528H509.402V264H507.35V251.49H514.712ZM517.658 252.768C517.286 252.768 516.974 252.642 516.722 252.39C516.47 252.138 516.344 251.826 516.344 251.454C516.344 251.082 516.47 250.77 516.722 250.518C516.974 250.266 517.286 250.14 517.658 250.14C518.018 250.14 518.324 250.266 518.576 250.518C518.828 250.77 518.954 251.082 518.954 251.454C518.954 251.826 518.828 252.138 518.576 252.39C518.324 252.642 518.018 252.768 517.658 252.768ZM518.666 254.082V264H516.614V254.082H518.666ZM526.364 253.92C527.144 253.92 527.84 254.082 528.452 254.406C529.076 254.73 529.562 255.21 529.91 255.846C530.258 256.482 530.432 257.25 530.432 258.15V264H528.398V258.456C528.398 257.568 528.176 256.89 527.732 256.422C527.288 255.942 526.682 255.702 525.914 255.702C525.146 255.702 524.534 255.942 524.078 256.422C523.634 256.89 523.412 257.568 523.412 258.456V264H521.36V254.082H523.412V255.216C523.748 254.808 524.174 254.49 524.69 254.262C525.218 254.034 525.776 253.92 526.364 253.92ZM532.365 258.996C532.365 258 532.569 257.118 532.977 256.35C533.397 255.582 533.961 254.988 534.669 254.568C535.389 254.136 536.187 253.92 537.063 253.92C537.711 253.92 538.347 254.064 538.971 254.352C539.607 254.628 540.111 255 540.483 255.468V250.68H542.553V264H540.483V262.506C540.147 262.986 539.679 263.382 539.079 263.694C538.491 264.006 537.813 264.162 537.045 264.162C536.181 264.162 535.389 263.946 534.669 263.514C533.961 263.07 533.397 262.458 532.977 261.678C532.569 260.886 532.365 259.992 532.365 258.996ZM540.483 259.032C540.483 258.348 540.339 257.754 540.051 257.25C539.775 256.746 539.409 256.362 538.953 256.098C538.497 255.834 538.005 255.702 537.477 255.702C536.949 255.702 536.457 255.834 536.001 256.098C535.545 256.35 535.173 256.728 534.885 257.232C534.609 257.724 534.471 258.312 534.471 258.996C534.471 259.68 534.609 260.28 534.885 260.796C535.173 261.312 535.545 261.708 536.001 261.984C536.469 262.248 536.961 262.38 537.477 262.38C538.005 262.38 538.497 262.248 538.953 261.984C539.409 261.72 539.775 261.336 540.051 260.832C540.339 260.316 540.483 259.716 540.483 259.032ZM559.194 251.49L555.054 259.464V264H553.002V259.464L548.844 251.49H551.13L554.028 257.628L556.926 251.49H559.194ZM565.125 264.162C564.189 264.162 563.343 263.952 562.587 263.532C561.831 263.1 561.237 262.5 560.805 261.732C560.373 260.952 560.157 260.052 560.157 259.032C560.157 258.024 560.379 257.13 560.823 256.35C561.267 255.57 561.873 254.97 562.641 254.55C563.409 254.13 564.267 253.92 565.215 253.92C566.163 253.92 567.021 254.13 567.789 254.55C568.557 254.97 569.163 255.57 569.607 256.35C570.051 257.13 570.273 258.024 570.273 259.032C570.273 260.04 570.045 260.934 569.589 261.714C569.133 262.494 568.509 263.1 567.717 263.532C566.937 263.952 566.073 264.162 565.125 264.162ZM565.125 262.38C565.653 262.38 566.145 262.254 566.601 262.002C567.069 261.75 567.447 261.372 567.735 260.868C568.023 260.364 568.167 259.752 568.167 259.032C568.167 258.312 568.029 257.706 567.753 257.214C567.477 256.71 567.111 256.332 566.655 256.08C566.199 255.828 565.707 255.702 565.179 255.702C564.651 255.702 564.159 255.828 563.703 256.08C563.259 256.332 562.905 256.71 562.641 257.214C562.377 257.706 562.245 258.312 562.245 259.032C562.245 260.1 562.515 260.928 563.055 261.516C563.607 262.092 564.297 262.38 565.125 262.38ZM581.283 254.082V264H579.231V262.83C578.907 263.238 578.481 263.562 577.953 263.802C577.437 264.03 576.885 264.144 576.297 264.144C575.517 264.144 574.815 263.982 574.191 263.658C573.579 263.334 573.093 262.854 572.733 262.218C572.385 261.582 572.211 260.814 572.211 259.914V254.082H574.245V259.608C574.245 260.496 574.467 261.18 574.911 261.66C575.355 262.128 575.961 262.362 576.729 262.362C577.497 262.362 578.103 262.128 578.547 261.66C579.003 261.18 579.231 260.496 579.231 259.608V254.082H581.283ZM586.043 255.522C586.343 255.018 586.739 254.628 587.231 254.352C587.735 254.064 588.329 253.92 589.013 253.92V256.044H588.491C587.687 256.044 587.075 256.248 586.655 256.656C586.247 257.064 586.043 257.772 586.043 258.78V264H583.991V254.082H586.043V255.522ZM605.853 264H603.801L597.627 254.658V264H595.575V251.472H597.627L603.801 260.796V251.472H605.853V264ZM617.637 258.798C617.637 259.17 617.613 259.506 617.565 259.806H609.987C610.047 260.598 610.341 261.234 610.869 261.714C611.397 262.194 612.045 262.434 612.813 262.434C613.917 262.434 614.697 261.972 615.153 261.048H617.367C617.067 261.96 616.521 262.71 615.729 263.298C614.949 263.874 613.977 264.162 612.813 264.162C611.865 264.162 611.013 263.952 610.257 263.532C609.513 263.1 608.925 262.5 608.493 261.732C608.073 260.952 607.863 260.052 607.863 259.032C607.863 258.012 608.067 257.118 608.475 256.35C608.895 255.57 609.477 254.97 610.221 254.55C610.977 254.13 611.841 253.92 612.813 253.92C613.749 253.92 614.583 254.124 615.315 254.532C616.047 254.94 616.617 255.516 617.025 256.26C617.433 256.992 617.637 257.838 617.637 258.798ZM615.495 258.15C615.483 257.394 615.213 256.788 614.685 256.332C614.157 255.876 613.503 255.648 612.723 255.648C612.015 255.648 611.409 255.876 610.905 256.332C610.401 256.776 610.101 257.382 610.005 258.15H615.495ZM623.905 258.978L627.109 264H624.787L622.645 260.634L620.629 264H618.487L621.691 259.122L618.487 254.082H620.809L622.951 257.448L624.967 254.082H627.109L623.905 258.978ZM631.033 255.756V261.246C631.033 261.618 631.117 261.888 631.285 262.056C631.465 262.212 631.765 262.29 632.185 262.29H633.445V264H631.825C630.901 264 630.193 263.784 629.701 263.352C629.209 262.92 628.963 262.218 628.963 261.246V255.756H627.793V254.082H628.963V251.616H631.033V254.082H633.445V255.756H631.033ZM648.094 251.49V253.164H644.764V264H642.712V253.164H639.364V251.49H648.094ZM654.474 264.162C653.538 264.162 652.692 263.952 651.936 263.532C651.18 263.1 650.586 262.5 650.154 261.732C649.722 260.952 649.506 260.052 649.506 259.032C649.506 258.024 649.728 257.13 650.172 256.35C650.616 255.57 651.222 254.97 651.99 254.55C652.758 254.13 653.616 253.92 654.564 253.92C655.512 253.92 656.37 254.13 657.138 254.55C657.906 254.97 658.512 255.57 658.956 256.35C659.4 257.13 659.622 258.024 659.622 259.032C659.622 260.04 659.394 260.934 658.938 261.714C658.482 262.494 657.858 263.1 657.066 263.532C656.286 263.952 655.422 264.162 654.474 264.162ZM654.474 262.38C655.002 262.38 655.494 262.254 655.95 262.002C656.418 261.75 656.796 261.372 657.084 260.868C657.372 260.364 657.516 259.752 657.516 259.032C657.516 258.312 657.378 257.706 657.102 257.214C656.826 256.71 656.46 256.332 656.004 256.08C655.548 255.828 655.056 255.702 654.528 255.702C654 255.702 653.508 255.828 653.052 256.08C652.608 256.332 652.254 256.71 651.99 257.214C651.726 257.706 651.594 258.312 651.594 259.032C651.594 260.1 651.864 260.928 652.404 261.516C652.956 262.092 653.646 262.38 654.474 262.38ZM670.633 254.082V264H668.581V262.83C668.257 263.238 667.831 263.562 667.303 263.802C666.787 264.03 666.235 264.144 665.647 264.144C664.867 264.144 664.165 263.982 663.541 263.658C662.929 263.334 662.443 262.854 662.083 262.218C661.735 261.582 661.561 260.814 661.561 259.914V254.082H663.595V259.608C663.595 260.496 663.817 261.18 664.261 261.66C664.705 262.128 665.311 262.362 666.079 262.362C666.847 262.362 667.453 262.128 667.897 261.66C668.353 261.18 668.581 260.496 668.581 259.608V254.082H670.633ZM675.392 255.522C675.692 255.018 676.088 254.628 676.58 254.352C677.084 254.064 677.678 253.92 678.362 253.92V256.044H677.84C677.036 256.044 676.424 256.248 676.004 256.656C675.596 257.064 675.392 257.772 675.392 258.78V264H673.34V254.082H675.392V255.522ZM695.202 264H693.15L686.976 254.658V264H684.924V251.472H686.976L693.15 260.796V251.472H695.202V264ZM702.199 264.162C701.263 264.162 700.417 263.952 699.661 263.532C698.905 263.1 698.311 262.5 697.879 261.732C697.447 260.952 697.231 260.052 697.231 259.032C697.231 258.024 697.453 257.13 697.897 256.35C698.341 255.57 698.947 254.97 699.715 254.55C700.483 254.13 701.341 253.92 702.289 253.92C703.237 253.92 704.095 254.13 704.863 254.55C705.631 254.97 706.237 255.57 706.681 256.35C707.125 257.13 707.347 258.024 707.347 259.032C707.347 260.04 707.119 260.934 706.663 261.714C706.207 262.494 705.583 263.1 704.791 263.532C704.011 263.952 703.147 264.162 702.199 264.162ZM702.199 262.38C702.727 262.38 703.219 262.254 703.675 262.002C704.143 261.75 704.521 261.372 704.809 260.868C705.097 260.364 705.241 259.752 705.241 259.032C705.241 258.312 705.103 257.706 704.827 257.214C704.551 256.71 704.185 256.332 703.729 256.08C703.273 255.828 702.781 255.702 702.253 255.702C701.725 255.702 701.233 255.828 700.777 256.08C700.333 256.332 699.979 256.71 699.715 257.214C699.451 257.706 699.319 258.312 699.319 259.032C699.319 260.1 699.589 260.928 700.129 261.516C700.681 262.092 701.371 262.38 702.199 262.38ZM722.695 254.082L719.617 264H717.457L715.459 256.674L713.461 264H711.301L708.205 254.082H710.293L712.363 262.056L714.469 254.082H716.611L718.627 262.02L720.679 254.082H722.695ZM726.803 251.49L726.569 260.22H724.859L724.625 251.49H726.803ZM725.777 264.126C725.405 264.126 725.093 264 724.841 263.748C724.589 263.496 724.463 263.184 724.463 262.812C724.463 262.44 724.589 262.128 724.841 261.876C725.093 261.624 725.405 261.498 725.777 261.498C726.137 261.498 726.443 261.624 726.695 261.876C726.947 262.128 727.073 262.44 727.073 262.812C727.073 263.184 726.947 263.496 726.695 263.748C726.443 264 726.137 264.126 725.777 264.126Z" fill="white"/>
</g>
<path d="M361.621 91.576C361.621 92.7707 361.333 93.8907 360.757 94.936C360.202 95.9813 359.317 96.824 358.101 97.464C356.906 98.104 355.392 98.424 353.557 98.424H349.813V107H345.333V84.664H353.557C355.285 84.664 356.757 84.9627 357.973 85.56C359.189 86.1573 360.096 86.9787 360.693 88.024C361.312 89.0693 361.621 90.2533 361.621 91.576ZM353.365 94.808C354.602 94.808 355.52 94.5307 356.117 93.976C356.714 93.4 357.013 92.6 357.013 91.576C357.013 89.4 355.797 88.312 353.365 88.312H349.813V94.808H353.365ZM369.282 92.024C369.858 91.0853 370.604 90.3493 371.522 89.816C372.46 89.2827 373.527 89.016 374.722 89.016V93.72H373.538C372.13 93.72 371.063 94.0507 370.338 94.712C369.634 95.3733 369.282 96.5253 369.282 98.168V107H364.802V89.272H369.282V92.024ZM394.219 97.752C394.219 98.392 394.177 98.968 394.091 99.48H381.131C381.238 100.76 381.686 101.763 382.475 102.488C383.265 103.213 384.235 103.576 385.387 103.576C387.051 103.576 388.235 102.861 388.939 101.432H393.771C393.259 103.139 392.278 104.547 390.827 105.656C389.377 106.744 387.595 107.288 385.483 107.288C383.777 107.288 382.241 106.915 380.875 106.168C379.531 105.4 378.475 104.323 377.707 102.936C376.961 101.549 376.587 99.9493 376.587 98.136C376.587 96.3013 376.961 94.6907 377.707 93.304C378.454 91.9173 379.499 90.8507 380.843 90.104C382.187 89.3573 383.734 88.984 385.483 88.984C387.169 88.984 388.673 89.3467 389.995 90.072C391.339 90.7973 392.374 91.832 393.099 93.176C393.846 94.4987 394.219 96.024 394.219 97.752ZM389.579 96.472C389.558 95.32 389.142 94.4027 388.331 93.72C387.521 93.016 386.529 92.664 385.355 92.664C384.246 92.664 383.307 93.0053 382.539 93.688C381.793 94.3493 381.334 95.2773 381.163 96.472H389.579ZM401.969 91.832C402.545 91.0213 403.335 90.3493 404.337 89.816C405.361 89.2613 406.524 88.984 407.825 88.984C409.34 88.984 410.705 89.3573 411.921 90.104C413.159 90.8507 414.129 91.9173 414.833 93.304C415.559 94.6693 415.921 96.2587 415.921 98.072C415.921 99.8853 415.559 101.496 414.833 102.904C414.129 104.291 413.159 105.368 411.921 106.136C410.705 106.904 409.34 107.288 407.825 107.288C406.524 107.288 405.372 107.021 404.369 106.488C403.388 105.955 402.588 105.283 401.969 104.472V115.448H397.489V89.272H401.969V91.832ZM411.345 98.072C411.345 97.0053 411.121 96.088 410.673 95.32C410.247 94.5307 409.671 93.9333 408.945 93.528C408.241 93.1227 407.473 92.92 406.641 92.92C405.831 92.92 405.063 93.1333 404.337 93.56C403.633 93.9653 403.057 94.5627 402.609 95.352C402.183 96.1413 401.969 97.0693 401.969 98.136C401.969 99.2027 402.183 100.131 402.609 100.92C403.057 101.709 403.633 102.317 404.337 102.744C405.063 103.149 405.831 103.352 406.641 103.352C407.473 103.352 408.241 103.139 408.945 102.712C409.671 102.285 410.247 101.677 410.673 100.888C411.121 100.099 411.345 99.16 411.345 98.072ZM418.025 98.072C418.025 96.28 418.377 94.6907 419.081 93.304C419.806 91.9173 420.777 90.8507 421.993 90.104C423.23 89.3573 424.606 88.984 426.121 88.984C427.443 88.984 428.595 89.2507 429.577 89.784C430.579 90.3173 431.379 90.9893 431.977 91.8V89.272H436.489V107H431.977V104.408C431.401 105.24 430.601 105.933 429.577 106.488C428.574 107.021 427.411 107.288 426.089 107.288C424.595 107.288 423.23 106.904 421.993 106.136C420.777 105.368 419.806 104.291 419.081 102.904C418.377 101.496 418.025 99.8853 418.025 98.072ZM431.977 98.136C431.977 97.048 431.763 96.12 431.337 95.352C430.91 94.5627 430.334 93.9653 429.609 93.56C428.883 93.1333 428.105 92.92 427.273 92.92C426.441 92.92 425.673 93.1227 424.969 93.528C424.265 93.9333 423.689 94.5307 423.241 95.32C422.814 96.088 422.601 97.0053 422.601 98.072C422.601 99.1387 422.814 100.077 423.241 100.888C423.689 101.677 424.265 102.285 424.969 102.712C425.694 103.139 426.462 103.352 427.273 103.352C428.105 103.352 428.883 103.149 429.609 102.744C430.334 102.317 430.91 101.72 431.337 100.952C431.763 100.163 431.977 99.224 431.977 98.136ZM445.344 92.024C445.92 91.0853 446.667 90.3493 447.584 89.816C448.523 89.2827 449.59 89.016 450.784 89.016V93.72H449.6C448.192 93.72 447.126 94.0507 446.4 94.712C445.696 95.3733 445.344 96.5253 445.344 98.168V107H440.864V89.272H445.344V92.024ZM470.282 97.752C470.282 98.392 470.239 98.968 470.154 99.48H457.194C457.3 100.76 457.748 101.763 458.538 102.488C459.327 103.213 460.298 103.576 461.45 103.576C463.114 103.576 464.298 102.861 465.002 101.432H469.834C469.322 103.139 468.34 104.547 466.89 105.656C465.439 106.744 463.658 107.288 461.546 107.288C459.839 107.288 458.303 106.915 456.938 106.168C455.594 105.4 454.538 104.323 453.77 102.936C453.023 101.549 452.65 99.9493 452.65 98.136C452.65 96.3013 453.023 94.6907 453.77 93.304C454.516 91.9173 455.562 90.8507 456.906 90.104C458.25 89.3573 459.796 88.984 461.546 88.984C463.231 88.984 464.735 89.3467 466.058 90.072C467.402 90.7973 468.436 91.832 469.162 93.176C469.908 94.4987 470.282 96.024 470.282 97.752ZM465.642 96.472C465.62 95.32 465.204 94.4027 464.394 93.72C463.583 93.016 462.591 92.664 461.418 92.664C460.308 92.664 459.37 93.0053 458.602 93.688C457.855 94.3493 457.396 95.2773 457.226 96.472H465.642ZM498.937 84.664L491.385 99.224V107H486.905V99.224L479.321 84.664H484.377L489.177 94.872L493.945 84.664H498.937ZM509.393 107.288C507.686 107.288 506.15 106.915 504.785 106.168C503.419 105.4 502.342 104.323 501.553 102.936C500.785 101.549 500.401 99.9493 500.401 98.136C500.401 96.3227 500.795 94.7227 501.585 93.336C502.395 91.9493 503.494 90.8827 504.881 90.136C506.267 89.368 507.814 88.984 509.521 88.984C511.227 88.984 512.774 89.368 514.161 90.136C515.547 90.8827 516.635 91.9493 517.425 93.336C518.235 94.7227 518.641 96.3227 518.641 98.136C518.641 99.9493 518.225 101.549 517.392 102.936C516.582 104.323 515.473 105.4 514.065 106.168C512.678 106.915 511.121 107.288 509.393 107.288ZM509.393 103.384C510.203 103.384 510.961 103.192 511.665 102.808C512.39 102.403 512.966 101.805 513.393 101.016C513.819 100.227 514.033 99.2667 514.033 98.136C514.033 96.4507 513.585 95.16 512.689 94.264C511.814 93.3467 510.737 92.888 509.457 92.888C508.177 92.888 507.099 93.3467 506.225 94.264C505.371 95.16 504.945 96.4507 504.945 98.136C504.945 99.8213 505.361 101.123 506.193 102.04C507.046 102.936 508.113 103.384 509.393 103.384ZM538.663 89.272V107H534.151V104.76C533.575 105.528 532.817 106.136 531.879 106.584C530.961 107.011 529.959 107.224 528.871 107.224C527.484 107.224 526.257 106.936 525.191 106.36C524.124 105.763 523.281 104.899 522.663 103.768C522.065 102.616 521.767 101.251 521.767 99.672V89.272H526.247V99.032C526.247 100.44 526.599 101.528 527.303 102.296C528.007 103.043 528.967 103.416 530.183 103.416C531.42 103.416 532.391 103.043 533.095 102.296C533.799 101.528 534.151 100.44 534.151 99.032V89.272H538.663ZM547.563 92.024C548.139 91.0853 548.886 90.3493 549.803 89.816C550.742 89.2827 551.808 89.016 553.003 89.016V93.72H551.819C550.411 93.72 549.344 94.0507 548.619 94.712C547.915 95.3733 547.563 96.5253 547.563 98.168V107H543.083V89.272H547.563V92.024ZM562.805 107.288C561.354 107.288 560.053 107.032 558.901 106.52C557.749 105.987 556.831 105.272 556.149 104.376C555.487 103.48 555.125 102.488 555.061 101.4H559.573C559.658 102.083 559.989 102.648 560.565 103.096C561.162 103.544 561.898 103.768 562.773 103.768C563.626 103.768 564.287 103.597 564.757 103.256C565.247 102.915 565.493 102.477 565.493 101.944C565.493 101.368 565.194 100.941 564.597 100.664C564.021 100.365 563.093 100.045 561.812 99.704C560.49 99.384 559.402 99.0533 558.549 98.712C557.717 98.3707 556.991 97.848 556.373 97.144C555.775 96.44 555.477 95.4907 555.477 94.296C555.477 93.3147 555.754 92.4187 556.309 91.608C556.885 90.7973 557.695 90.1573 558.741 89.688C559.807 89.2187 561.055 88.984 562.485 88.984C564.597 88.984 566.282 89.5173 567.541 90.584C568.799 91.6293 569.493 93.048 569.621 94.84H565.333C565.269 94.136 564.97 93.5813 564.437 93.176C563.925 92.7493 563.231 92.536 562.357 92.536C561.546 92.536 560.917 92.6853 560.469 92.984C560.042 93.2827 559.829 93.6987 559.829 94.232C559.829 94.8293 560.127 95.288 560.725 95.608C561.322 95.9067 562.25 96.216 563.509 96.536C564.789 96.856 565.845 97.1867 566.677 97.528C567.509 97.8693 568.223 98.4027 568.821 99.128C569.439 99.832 569.759 100.771 569.781 101.944C569.781 102.968 569.493 103.885 568.917 104.696C568.362 105.507 567.551 106.147 566.485 106.616C565.439 107.064 564.213 107.288 562.805 107.288ZM589.938 97.752C589.938 98.392 589.895 98.968 589.81 99.48H576.85C576.957 100.76 577.405 101.763 578.194 102.488C578.983 103.213 579.954 103.576 581.106 103.576C582.77 103.576 583.954 102.861 584.658 101.432H589.49C588.978 103.139 587.997 104.547 586.546 105.656C585.095 106.744 583.314 107.288 581.202 107.288C579.495 107.288 577.959 106.915 576.594 106.168C575.25 105.4 574.194 104.323 573.426 102.936C572.679 101.549 572.306 99.9493 572.306 98.136C572.306 96.3013 572.679 94.6907 573.426 93.304C574.173 91.9173 575.218 90.8507 576.562 90.104C577.906 89.3573 579.453 88.984 581.202 88.984C582.887 88.984 584.391 89.3467 585.714 90.072C587.058 90.7973 588.093 91.832 588.818 93.176C589.565 94.4987 589.938 96.024 589.938 97.752ZM585.298 96.472C585.277 95.32 584.861 94.4027 584.05 93.72C583.239 93.016 582.247 92.664 581.074 92.664C579.965 92.664 579.026 93.0053 578.258 93.688C577.511 94.3493 577.053 95.2773 576.882 96.472H585.298ZM597.688 83.32V107H593.208V83.32H597.688ZM610.242 92.952H607.138V107H602.594V92.952H600.578V89.272H602.594V88.376C602.594 86.2 603.213 84.6 604.45 83.576C605.688 82.552 607.554 82.072 610.05 82.136V85.912C608.962 85.8907 608.205 86.072 607.778 86.456C607.352 86.84 607.138 87.5333 607.138 88.536V89.272H610.242V92.952ZM637.955 107L635.523 104.6C633.453 106.456 630.925 107.384 627.939 107.384C626.296 107.384 624.845 107.107 623.587 106.552C622.349 105.976 621.389 105.176 620.707 104.152C620.024 103.107 619.683 101.901 619.683 100.536C619.683 99.064 620.099 97.7413 620.931 96.568C621.763 95.3947 622.989 94.4453 624.611 93.72C624.035 93.016 623.619 92.344 623.363 91.704C623.107 91.0427 622.979 90.3387 622.979 89.592C622.979 88.568 623.245 87.6507 623.779 86.84C624.312 86.008 625.069 85.3573 626.051 84.888C627.053 84.4187 628.216 84.184 629.539 84.184C630.883 84.184 632.035 84.44 632.995 84.952C633.955 85.464 634.669 86.1467 635.139 87C635.608 87.8533 635.811 88.8027 635.747 89.848H631.395C631.416 89.144 631.245 88.6107 630.883 88.248C630.52 87.864 630.029 87.672 629.411 87.672C628.813 87.672 628.312 87.8533 627.907 88.216C627.523 88.5573 627.331 89.0053 627.331 89.56C627.331 90.0933 627.491 90.6267 627.811 91.16C628.131 91.672 628.653 92.312 629.379 93.08L635.01 98.648C635.053 98.6053 635.085 98.5627 635.107 98.52C635.128 98.4773 635.149 98.4347 635.171 98.392L636.995 95.352H641.667L639.427 99.288C639 100.12 638.541 100.909 638.051 101.656L643.459 107H637.955ZM628.067 103.672C629.816 103.672 631.363 103.053 632.707 101.816L627.203 96.376C625.133 97.2933 624.099 98.5947 624.099 100.28C624.099 101.24 624.461 102.051 625.187 102.712C625.912 103.352 626.872 103.672 628.067 103.672ZM657.782 103.448H665.142V107H653.302V84.664H657.782V103.448ZM684.469 97.752C684.469 98.392 684.427 98.968 684.341 99.48H671.381C671.488 100.76 671.936 101.763 672.725 102.488C673.515 103.213 674.485 103.576 675.637 103.576C677.301 103.576 678.485 102.861 679.189 101.432H684.021C683.509 103.139 682.528 104.547 681.077 105.656C679.627 106.744 677.845 107.288 675.733 107.288C674.027 107.288 672.491 106.915 671.125 106.168C669.781 105.4 668.725 104.323 667.957 102.936C667.211 101.549 666.837 99.9493 666.837 98.136C666.837 96.3013 667.211 94.6907 667.957 93.304C668.704 91.9173 669.749 90.8507 671.093 90.104C672.437 89.3573 673.984 88.984 675.733 88.984C677.419 88.984 678.923 89.3467 680.245 90.072C681.589 90.7973 682.624 91.832 683.349 93.176C684.096 94.4987 684.469 96.024 684.469 97.752ZM679.829 96.472C679.808 95.32 679.392 94.4027 678.581 93.72C677.771 93.016 676.779 92.664 675.605 92.664C674.496 92.664 673.557 93.0053 672.789 93.688C672.043 94.3493 671.584 95.2773 671.413 96.472H679.829ZM692.955 92.952V101.528C692.955 102.125 693.094 102.563 693.371 102.84C693.67 103.096 694.161 103.224 694.843 103.224H696.923V107H694.107C690.331 107 688.443 105.165 688.443 101.496V92.952H686.331V89.272H688.443V84.888H692.955V89.272H696.923V92.952H692.955ZM702.962 81.464L702.578 88.248H699.538L699.122 81.464H702.962ZM713.18 107.288C711.729 107.288 710.428 107.032 709.276 106.52C708.124 105.987 707.206 105.272 706.524 104.376C705.862 103.48 705.5 102.488 705.436 101.4H709.948C710.033 102.083 710.364 102.648 710.94 103.096C711.537 103.544 712.273 103.768 713.148 103.768C714.001 103.768 714.662 103.597 715.132 103.256C715.622 102.915 715.868 102.477 715.868 101.944C715.868 101.368 715.569 100.941 714.972 100.664C714.396 100.365 713.468 100.045 712.188 99.704C710.865 99.384 709.777 99.0533 708.924 98.712C708.092 98.3707 707.366 97.848 706.748 97.144C706.15 96.44 705.852 95.4907 705.852 94.296C705.852 93.3147 706.129 92.4187 706.684 91.608C707.26 90.7973 708.07 90.1573 709.116 89.688C710.182 89.2187 711.43 88.984 712.86 88.984C714.972 88.984 716.657 89.5173 717.916 90.584C719.174 91.6293 719.868 93.048 719.996 94.84H715.708C715.644 94.136 715.345 93.5813 714.812 93.176C714.3 92.7493 713.606 92.536 712.732 92.536C711.921 92.536 711.292 92.6853 710.844 92.984C710.417 93.2827 710.204 93.6987 710.204 94.232C710.204 94.8293 710.502 95.288 711.1 95.608C711.697 95.9067 712.625 96.216 713.884 96.536C715.164 96.856 716.22 97.1867 717.052 97.528C717.884 97.8693 718.598 98.4027 719.196 99.128C719.814 99.832 720.134 100.771 720.156 101.944C720.156 102.968 719.868 103.885 719.292 104.696C718.737 105.507 717.926 106.147 716.86 106.616C715.814 107.064 714.588 107.288 713.18 107.288ZM735.938 88.28V93.88H743.458V97.432H735.938V103.352H744.418V107H731.458V84.632H744.418V88.28H735.938ZM758.281 107L754.633 101.496L751.401 107H746.601L752.393 98.104L746.537 89.272H751.593L755.209 94.744L758.473 89.272H763.273L757.449 98.104L763.337 107H758.281ZM770.251 91.832C770.827 91.0213 771.616 90.3493 772.619 89.816C773.643 89.2613 774.805 88.984 776.107 88.984C777.621 88.984 778.987 89.3573 780.203 90.104C781.44 90.8507 782.411 91.9173 783.115 93.304C783.84 94.6693 784.203 96.2587 784.203 98.072C784.203 99.8853 783.84 101.496 783.115 102.904C782.411 104.291 781.44 105.368 780.203 106.136C778.987 106.904 777.621 107.288 776.107 107.288C774.805 107.288 773.653 107.021 772.651 106.488C771.669 105.955 770.869 105.283 770.251 104.472V115.448H765.771V89.272H770.251V91.832ZM779.627 98.072C779.627 97.0053 779.403 96.088 778.955 95.32C778.528 94.5307 777.952 93.9333 777.227 93.528C776.523 93.1227 775.755 92.92 774.923 92.92C774.112 92.92 773.344 93.1333 772.619 93.56C771.915 93.9653 771.339 94.5627 770.891 95.352C770.464 96.1413 770.251 97.0693 770.251 98.136C770.251 99.2027 770.464 100.131 770.891 100.92C771.339 101.709 771.915 102.317 772.619 102.744C773.344 103.149 774.112 103.352 774.923 103.352C775.755 103.352 776.523 103.139 777.227 102.712C777.952 102.285 778.528 101.677 778.955 100.888C779.403 100.099 779.627 99.16 779.627 98.072ZM791.938 83.32V107H787.458V83.32H791.938ZM804.236 107.288C802.53 107.288 800.994 106.915 799.628 106.168C798.263 105.4 797.186 104.323 796.396 102.936C795.628 101.549 795.244 99.9493 795.244 98.136C795.244 96.3227 795.639 94.7227 796.428 93.336C797.239 91.9493 798.338 90.8827 799.724 90.136C801.111 89.368 802.658 88.984 804.364 88.984C806.071 88.984 807.618 89.368 809.004 90.136C810.391 90.8827 811.479 91.9493 812.268 93.336C813.079 94.7227 813.484 96.3227 813.484 98.136C813.484 99.9493 813.068 101.549 812.236 102.936C811.426 104.323 810.316 105.4 808.908 106.168C807.522 106.915 805.964 107.288 804.236 107.288ZM804.236 103.384C805.047 103.384 805.804 103.192 806.508 102.808C807.234 102.403 807.81 101.805 808.236 101.016C808.663 100.227 808.876 99.2667 808.876 98.136C808.876 96.4507 808.428 95.16 807.532 94.264C806.658 93.3467 805.58 92.888 804.3 92.888C803.02 92.888 801.943 93.3467 801.068 94.264C800.215 95.16 799.788 96.4507 799.788 98.136C799.788 99.8213 800.204 101.123 801.036 102.04C801.89 102.936 802.956 103.384 804.236 103.384ZM821.251 92.024C821.827 91.0853 822.573 90.3493 823.491 89.816C824.429 89.2827 825.496 89.016 826.691 89.016V93.72H825.507C824.099 93.72 823.032 94.0507 822.307 94.712C821.603 95.3733 821.251 96.5253 821.251 98.168V107H816.771V89.272H821.251V92.024ZM846.188 97.752C846.188 98.392 846.145 98.968 846.06 99.48H833.1C833.207 100.76 833.655 101.763 834.444 102.488C835.233 103.213 836.204 103.576 837.356 103.576C839.02 103.576 840.204 102.861 840.908 101.432H845.74C845.228 103.139 844.247 104.547 842.796 105.656C841.345 106.744 839.564 107.288 837.452 107.288C835.745 107.288 834.209 106.915 832.844 106.168C831.5 105.4 830.444 104.323 829.676 102.936C828.929 101.549 828.556 99.9493 828.556 98.136C828.556 96.3013 828.929 94.6907 829.676 93.304C830.423 91.9173 831.468 90.8507 832.812 90.104C834.156 89.3573 835.703 88.984 837.452 88.984C839.137 88.984 840.641 89.3467 841.964 90.072C843.308 90.7973 844.343 91.832 845.068 93.176C845.815 94.4987 846.188 96.024 846.188 97.752ZM841.548 96.472C841.527 95.32 841.111 94.4027 840.3 93.72C839.489 93.016 838.497 92.664 837.324 92.664C836.215 92.664 835.276 93.0053 834.508 93.688C833.761 94.3493 833.303 95.2773 833.132 96.472H841.548ZM469.705 132.664V136.28H463.753V155H459.273V136.28H453.321V132.664H469.705ZM482.958 137.016C484.302 137.016 485.496 137.315 486.542 137.912C487.587 138.488 488.398 139.352 488.974 140.504C489.571 141.635 489.87 143 489.87 144.6V155H485.39V145.208C485.39 143.8 485.038 142.723 484.334 141.976C483.63 141.208 482.67 140.824 481.454 140.824C480.216 140.824 479.235 141.208 478.51 141.976C477.806 142.723 477.454 143.8 477.454 145.208V155H472.974V131.32H477.454V139.48C478.03 138.712 478.798 138.115 479.758 137.688C480.718 137.24 481.784 137.016 482.958 137.016ZM510.61 145.752C510.61 146.392 510.567 146.968 510.482 147.48H497.522C497.629 148.76 498.077 149.763 498.866 150.488C499.655 151.213 500.626 151.576 501.778 151.576C503.442 151.576 504.626 150.861 505.33 149.432H510.162C509.65 151.139 508.669 152.547 507.218 153.656C505.767 154.744 503.986 155.288 501.874 155.288C500.167 155.288 498.631 154.915 497.266 154.168C495.922 153.4 494.866 152.323 494.098 150.936C493.351 149.549 492.978 147.949 492.978 146.136C492.978 144.301 493.351 142.691 494.098 141.304C494.845 139.917 495.89 138.851 497.234 138.104C498.578 137.357 500.125 136.984 501.874 136.984C503.559 136.984 505.063 137.347 506.386 138.072C507.73 138.797 508.765 139.832 509.49 141.176C510.237 142.499 510.61 144.024 510.61 145.752ZM505.97 144.472C505.949 143.32 505.533 142.403 504.722 141.72C503.911 141.016 502.919 140.664 501.746 140.664C500.637 140.664 499.698 141.005 498.93 141.688C498.183 142.349 497.725 143.277 497.554 144.472H505.97ZM534.177 143.544C535.436 143.779 536.47 144.408 537.281 145.432C538.092 146.456 538.497 147.629 538.497 148.952C538.497 150.147 538.198 151.203 537.601 152.12C537.025 153.016 536.182 153.72 535.073 154.232C533.964 154.744 532.652 155 531.137 155H521.505V132.664H530.721C532.236 132.664 533.537 132.909 534.625 133.4C535.734 133.891 536.566 134.573 537.121 135.448C537.697 136.323 537.985 137.315 537.985 138.424C537.985 139.725 537.633 140.813 536.929 141.688C536.246 142.563 535.329 143.181 534.177 143.544ZM525.985 141.88H530.081C531.148 141.88 531.969 141.645 532.545 141.176C533.121 140.685 533.409 139.992 533.409 139.096C533.409 138.2 533.121 137.507 532.545 137.016C531.969 136.525 531.148 136.28 530.081 136.28H525.985V141.88ZM530.497 151.352C531.585 151.352 532.428 151.096 533.025 150.584C533.644 150.072 533.953 149.347 533.953 148.408C533.953 147.448 533.633 146.701 532.993 146.168C532.353 145.613 531.489 145.336 530.401 145.336H525.985V151.352H530.497ZM558.547 145.752C558.547 146.392 558.505 146.968 558.419 147.48H545.459C545.566 148.76 546.014 149.763 546.803 150.488C547.593 151.213 548.563 151.576 549.715 151.576C551.379 151.576 552.563 150.861 553.267 149.432H558.099C557.587 151.139 556.606 152.547 555.155 153.656C553.705 154.744 551.923 155.288 549.811 155.288C548.105 155.288 546.569 154.915 545.203 154.168C543.859 153.4 542.803 152.323 542.035 150.936C541.289 149.549 540.915 147.949 540.915 146.136C540.915 144.301 541.289 142.691 542.035 141.304C542.782 139.917 543.827 138.851 545.171 138.104C546.515 137.357 548.062 136.984 549.811 136.984C551.497 136.984 553.001 137.347 554.323 138.072C555.667 138.797 556.702 139.832 557.427 141.176C558.174 142.499 558.547 144.024 558.547 145.752ZM553.907 144.472C553.886 143.32 553.47 142.403 552.659 141.72C551.849 141.016 550.857 140.664 549.683 140.664C548.574 140.664 547.635 141.005 546.867 141.688C546.121 142.349 545.662 143.277 545.491 144.472H553.907ZM560.665 146.072C560.665 144.28 561.017 142.691 561.721 141.304C562.447 139.917 563.417 138.851 564.633 138.104C565.871 137.357 567.247 136.984 568.761 136.984C570.084 136.984 571.236 137.251 572.217 137.784C573.22 138.317 574.02 138.989 574.617 139.8V137.272H579.129V155H574.617V152.408C574.041 153.24 573.241 153.933 572.217 154.488C571.215 155.021 570.052 155.288 568.729 155.288C567.236 155.288 565.871 154.904 564.633 154.136C563.417 153.368 562.447 152.291 561.721 150.904C561.017 149.496 560.665 147.885 560.665 146.072ZM574.617 146.136C574.617 145.048 574.404 144.12 573.977 143.352C573.551 142.563 572.975 141.965 572.249 141.56C571.524 141.133 570.745 140.92 569.913 140.92C569.081 140.92 568.313 141.123 567.609 141.528C566.905 141.933 566.329 142.531 565.881 143.32C565.455 144.088 565.241 145.005 565.241 146.072C565.241 147.139 565.455 148.077 565.881 148.888C566.329 149.677 566.905 150.285 567.609 150.712C568.335 151.139 569.103 151.352 569.913 151.352C570.745 151.352 571.524 151.149 572.249 150.744C572.975 150.317 573.551 149.72 573.977 148.952C574.404 148.163 574.617 147.224 574.617 146.136ZM600.241 137.272V155H595.729V152.76C595.153 153.528 594.396 154.136 593.457 154.584C592.54 155.011 591.537 155.224 590.449 155.224C589.062 155.224 587.836 154.936 586.769 154.36C585.702 153.763 584.86 152.899 584.241 151.768C583.644 150.616 583.345 149.251 583.345 147.672V137.272H587.825V147.032C587.825 148.44 588.177 149.528 588.881 150.296C589.585 151.043 590.545 151.416 591.761 151.416C592.998 151.416 593.969 151.043 594.673 150.296C595.377 149.528 595.729 148.44 595.729 147.032V137.272H600.241ZM609.877 140.952V149.528C609.877 150.125 610.016 150.563 610.293 150.84C610.592 151.096 611.082 151.224 611.765 151.224H613.845V155H611.029C607.253 155 605.365 153.165 605.365 149.496V140.952H603.253V137.272H605.365V132.888H609.877V137.272H613.845V140.952H609.877ZM634.027 137.272L623.051 163.384H618.283L622.123 154.552L615.019 137.272H620.043L624.619 149.656L629.259 137.272H634.027ZM654.435 155.224C652.345 155.224 650.425 154.733 648.675 153.752C646.926 152.771 645.539 151.416 644.515 149.688C643.491 147.939 642.979 145.965 642.979 143.768C642.979 141.592 643.491 139.64 644.515 137.912C645.539 136.163 646.926 134.797 648.675 133.816C650.425 132.835 652.345 132.344 654.435 132.344C656.547 132.344 658.467 132.835 660.195 133.816C661.945 134.797 663.321 136.163 664.323 137.912C665.347 139.64 665.859 141.592 665.859 143.768C665.859 145.965 665.347 147.939 664.323 149.688C663.321 151.416 661.945 152.771 660.195 153.752C658.446 154.733 656.526 155.224 654.435 155.224ZM654.435 151.224C655.779 151.224 656.963 150.925 657.987 150.328C659.011 149.709 659.811 148.835 660.387 147.704C660.963 146.573 661.251 145.261 661.251 143.768C661.251 142.275 660.963 140.973 660.387 139.864C659.811 138.733 659.011 137.869 657.987 137.272C656.963 136.675 655.779 136.376 654.435 136.376C653.091 136.376 651.897 136.675 650.851 137.272C649.827 137.869 649.027 138.733 648.451 139.864C647.875 140.973 647.587 142.275 647.587 143.768C647.587 145.261 647.875 146.573 648.451 147.704C649.027 148.835 649.827 149.709 650.851 150.328C651.897 150.925 653.091 151.224 654.435 151.224ZM677.32 140.952H674.216V155H669.672V140.952H667.656V137.272H669.672V136.376C669.672 134.2 670.291 132.6 671.528 131.576C672.766 130.552 674.632 130.072 677.128 130.136V133.912C676.04 133.891 675.283 134.072 674.856 134.456C674.43 134.84 674.216 135.533 674.216 136.536V137.272H677.32V140.952ZM700.521 143.544C701.779 143.779 702.814 144.408 703.625 145.432C704.435 146.456 704.841 147.629 704.841 148.952C704.841 150.147 704.542 151.203 703.945 152.12C703.369 153.016 702.526 153.72 701.417 154.232C700.307 154.744 698.995 155 697.481 155H687.849V132.664H697.065C698.579 132.664 699.881 132.909 700.969 133.4C702.078 133.891 702.91 134.573 703.465 135.448C704.041 136.323 704.329 137.315 704.329 138.424C704.329 139.725 703.977 140.813 703.273 141.688C702.59 142.563 701.673 143.181 700.521 143.544ZM692.329 141.88H696.425C697.491 141.88 698.313 141.645 698.889 141.176C699.465 140.685 699.753 139.992 699.753 139.096C699.753 138.2 699.465 137.507 698.889 137.016C698.313 136.525 697.491 136.28 696.425 136.28H692.329V141.88ZM696.841 151.352C697.929 151.352 698.771 151.096 699.369 150.584C699.987 150.072 700.297 149.347 700.297 148.408C700.297 147.448 699.977 146.701 699.337 146.168C698.697 145.613 697.833 145.336 696.745 145.336H692.329V151.352H696.841ZM707.259 146.072C707.259 144.28 707.611 142.691 708.315 141.304C709.04 139.917 710.011 138.851 711.227 138.104C712.464 137.357 713.84 136.984 715.355 136.984C716.678 136.984 717.83 137.251 718.811 137.784C719.814 138.317 720.614 138.989 721.211 139.8V137.272H725.723V155H721.211V152.408C720.635 153.24 719.835 153.933 718.811 154.488C717.808 155.021 716.646 155.288 715.323 155.288C713.83 155.288 712.464 154.904 711.227 154.136C710.011 153.368 709.04 152.291 708.315 150.904C707.611 149.496 707.259 147.885 707.259 146.072ZM721.211 146.136C721.211 145.048 720.998 144.12 720.571 143.352C720.144 142.563 719.568 141.965 718.843 141.56C718.118 141.133 717.339 140.92 716.507 140.92C715.675 140.92 714.907 141.123 714.203 141.528C713.499 141.933 712.923 142.531 712.475 143.32C712.048 144.088 711.835 145.005 711.835 146.072C711.835 147.139 712.048 148.077 712.475 148.888C712.923 149.677 713.499 150.285 714.203 150.712C714.928 151.139 715.696 151.352 716.507 151.352C717.339 151.352 718.118 151.149 718.843 150.744C719.568 150.317 720.144 149.72 720.571 148.952C720.998 148.163 721.211 147.224 721.211 146.136ZM734.579 131.32V155H730.099V131.32H734.579ZM741.277 135.16C740.488 135.16 739.826 134.915 739.293 134.424C738.781 133.912 738.525 133.283 738.525 132.536C738.525 131.789 738.781 131.171 739.293 130.68C739.826 130.168 740.488 129.912 741.277 129.912C742.066 129.912 742.717 130.168 743.229 130.68C743.762 131.171 744.029 131.789 744.029 132.536C744.029 133.283 743.762 133.912 743.229 134.424C742.717 134.915 742.066 135.16 741.277 135.16ZM743.485 137.272V155H739.005V137.272H743.485Z" fill="#343434"/>
</g>
<defs>
<filter id="filter0_d_96_768" x="414" y="194" width="407" height="195" filterUnits="userSpaceOnUse" color-interpolation-filters="sRGB">
<feFlood flood-opacity="0" result="BackgroundImageFix"/>
<feColorMatrix in="SourceAlpha" type="matrix" values="0 0 0 0 0 0 0 0 0 0 0 0 0 0 0 0 0 0 127 0" result="hardAlpha"/>
<feOffset dy="34"/>
<feGaussianBlur stdDeviation="34"/>
<feColorMatrix type="matrix" values="0 0 0 0 0.453096 0 0 0 0 0.452083 0 0 0 0 0.5 0 0 0 0.1 0"/>
<feBlend mode="normal" in2="BackgroundImageFix" result="effect1_dropShadow_96_768"/>
<feBlend mode="normal" in="SourceGraphic" in2="effect1_dropShadow_96_768" result="shape"/>
</filter>
<linearGradient id="paint0_linear_96_768" x1="486.79" y1="258.128" x2="753" y2="258.128" gradientUnits="userSpaceOnUse">
<stop stop-color="#FFCC47"/>
<stop offset="1" stop-color="#F49E1F"/>
</linearGradient>
<clipPath id="clip0_96_768">
<rect width="1199" height="359" rx="50" fill="white"/>
</clipPath>
</defs>
</svg>
