<svg width="14" height="19" viewBox="0 0 14 19" fill="none" xmlns="http://www.w3.org/2000/svg">
<path d="M9.24168 3.76668C10.1583 3.76668 10.9083 3.01668 10.9083 2.10002C10.9083 1.18335 10.1583 0.43335 9.24168 0.43335C8.32501 0.43335 7.57501 1.18335 7.57501 2.10002C7.57501 3.01668 8.32501 3.76668 9.24168 3.76668ZM6.60001 13.7667L7.07501 11.6833L8.82501 13.35V17.5167C8.82501 17.975 9.20001 18.35 9.65835 18.35C10.1167 18.35 10.4917 17.975 10.4917 17.5167V12.8167C10.4917 12.3583 10.3083 11.925 9.97501 11.6083L8.74168 10.4333L9.24168 7.93335C10.1333 8.96668 11.425 9.70835 12.875 9.94168C13.375 10.0167 13.825 9.61668 13.825 9.10835C13.825 8.70002 13.525 8.35835 13.1167 8.29168C11.85 8.08335 10.8 7.33335 10.2417 6.35002L9.40835 5.01668C9.07501 4.51668 8.57501 4.18335 7.99168 4.18335C7.74168 4.18335 7.57501 4.26668 7.32501 4.26668L4.00835 5.66668C3.39168 5.93335 2.99168 6.53335 2.99168 7.20835V9.18335C2.99168 9.64168 3.36668 10.0167 3.82501 10.0167C4.28335 10.0167 4.65835 9.64168 4.65835 9.18335V7.18335L6.15835 6.60002L4.82501 13.35L1.55835 12.6833C1.10835 12.5917 0.66668 12.8833 0.575013 13.3333V13.3667C0.483346 13.8167 0.775013 14.2584 1.22501 14.35L4.65001 15.0333C5.53335 15.2083 6.40001 14.65 6.60001 13.7667Z" fill="#969696"/>
</svg>
