<svg width="14" height="19" viewBox="0 0 14 19" fill="none" xmlns="http://www.w3.org/2000/svg">
<path d="M9.24162 4.06673C10.1583 4.06673 10.9083 3.31673 10.9083 2.40007C10.9083 1.4834 10.1583 0.733398 9.24162 0.733398C8.32495 0.733398 7.57495 1.4834 7.57495 2.40007C7.57495 3.31673 8.32495 4.06673 9.24162 4.06673ZM6.59995 14.0667L7.07495 11.9834L8.82495 13.6501V17.8167C8.82495 18.2751 9.19995 18.6501 9.65829 18.6501C10.1166 18.6501 10.4916 18.2751 10.4916 17.8167V13.1167C10.4916 12.6584 10.3083 12.2251 9.97495 11.9084L8.74162 10.7334L9.24162 8.2334C10.1333 9.26673 11.425 10.0084 12.875 10.2417C13.375 10.3167 13.825 9.91673 13.825 9.4084C13.825 9.00006 13.525 8.6584 13.1166 8.59173C11.85 8.3834 10.8 7.6334 10.2416 6.65006L9.40829 5.31673C9.07495 4.81673 8.57495 4.4834 7.99162 4.4834C7.74162 4.4834 7.57495 4.56673 7.32495 4.56673L4.00829 5.96673C3.39162 6.2334 2.99162 6.8334 2.99162 7.5084V9.4834C2.99162 9.94173 3.36662 10.3167 3.82495 10.3167C4.28329 10.3167 4.65829 9.94173 4.65829 9.4834V7.4834L6.15829 6.90006L4.82495 13.6501L1.55829 12.9834C1.10829 12.8917 0.666619 13.1834 0.574952 13.6334V13.6667C0.483285 14.1167 0.774952 14.5584 1.22495 14.6501L4.64995 15.3334C5.53329 15.5084 6.39995 14.9501 6.59995 14.0667Z" fill="#FAA61A"/>
</svg>
